<mxfile host="app.diagrams.net" modified="2020-09-28T23:01:24.081Z" agent="5.0 (Windows NT 10.0; Win64; x64) AppleWebKit/537.36 (KHTML, like Gecko) Chrome/85.0.4183.121 Safari/537.36" etag="dc4heJopY6-we-Zs4HaE" version="13.7.6" type="github">
  <diagram id="CRjgLtSJ01sPmX14vaST" name="Page-1">
    <mxGraphModel dx="2616" dy="1577" grid="1" gridSize="10" guides="1" tooltips="1" connect="1" arrows="1" fold="1" page="1" pageScale="1" pageWidth="1169" pageHeight="827" math="0" shadow="0">
      <root>
        <mxCell id="0" />
        <mxCell id="1" parent="0" />
        <mxCell id="FqqMgEGBLyU7ChuTZoGB-25" value="" style="group;spacing=0;strokeColor=none;" vertex="1" connectable="0" parent="1">
          <mxGeometry x="-5" y="-13" width="1180" height="840" as="geometry" />
        </mxCell>
        <mxCell id="FqqMgEGBLyU7ChuTZoGB-3" value="" style="rounded=0;whiteSpace=wrap;html=1;container=1;" vertex="1" parent="FqqMgEGBLyU7ChuTZoGB-25">
          <mxGeometry x="9.076923076923077" y="7.08433734939759" width="1170" height="830" as="geometry" />
        </mxCell>
        <mxCell id="FqqMgEGBLyU7ChuTZoGB-27" value="&lt;h1&gt;Parcerias-chave&lt;/h1&gt;&lt;p&gt;-&amp;gt; Membros do grupo.&lt;/p&gt;&lt;p&gt;-&amp;gt; Instituições de ensino.&lt;/p&gt;&lt;p&gt;-&amp;gt; Centrais de evento.&lt;/p&gt;" style="text;html=1;strokeColor=#b85450;fillColor=#f8cecc;spacing=5;spacingTop=-20;whiteSpace=wrap;overflow=hidden;rounded=0;" vertex="1" parent="FqqMgEGBLyU7ChuTZoGB-3">
          <mxGeometry width="230" height="620" as="geometry" />
        </mxCell>
        <mxCell id="FqqMgEGBLyU7ChuTZoGB-186" value="" style="endArrow=none;html=1;" edge="1" parent="FqqMgEGBLyU7ChuTZoGB-3">
          <mxGeometry width="50" height="50" relative="1" as="geometry">
            <mxPoint x="230.92307692307693" y="312.9156626506024" as="sourcePoint" />
            <mxPoint x="460.9230769230769" y="312.9156626506024" as="targetPoint" />
          </mxGeometry>
        </mxCell>
        <mxCell id="FqqMgEGBLyU7ChuTZoGB-187" value="" style="endArrow=none;html=1;spacing=0;" edge="1" parent="FqqMgEGBLyU7ChuTZoGB-3">
          <mxGeometry width="50" height="50" relative="1" as="geometry">
            <mxPoint x="696" y="312.9156626506024" as="sourcePoint" />
            <mxPoint x="930.9230769230769" y="312.9156626506024" as="targetPoint" />
          </mxGeometry>
        </mxCell>
        <mxCell id="FqqMgEGBLyU7ChuTZoGB-188" value="&lt;h1&gt;Atividades-chave&lt;/h1&gt;&lt;p&gt;-&amp;gt; Desenvolvimento de Software&lt;/p&gt;&lt;p&gt;-&amp;gt; Qualidade de Software&lt;/p&gt;&lt;p&gt;-&amp;gt; Segurança&lt;/p&gt;" style="text;html=1;strokeColor=#9673a6;fillColor=#e1d5e7;spacing=5;spacingTop=-20;whiteSpace=wrap;overflow=hidden;rounded=0;" vertex="1" parent="FqqMgEGBLyU7ChuTZoGB-3">
          <mxGeometry x="230" width="230" height="310" as="geometry" />
        </mxCell>
        <mxCell id="FqqMgEGBLyU7ChuTZoGB-189" value="&lt;h1&gt;Recursos-chave&lt;/h1&gt;&lt;p&gt;-&amp;gt; Computadores.&lt;/p&gt;&lt;p&gt;-&amp;gt; Internet.&lt;/p&gt;" style="text;html=1;strokeColor=#82b366;fillColor=#d5e8d4;spacing=5;spacingTop=-20;whiteSpace=wrap;overflow=hidden;rounded=0;" vertex="1" parent="FqqMgEGBLyU7ChuTZoGB-3">
          <mxGeometry x="230" y="315.92" width="230" height="304.08" as="geometry" />
        </mxCell>
        <mxCell id="FqqMgEGBLyU7ChuTZoGB-190" value="&lt;h1&gt;Estrutura de custos&lt;/h1&gt;&lt;p&gt;-&amp;gt; Gastos com serviços em nuvem:&lt;/p&gt;&lt;p&gt;Amazon EC2: R$294,00&lt;/p&gt;&lt;p&gt;Amazon S3: R$50,00&lt;/p&gt;&lt;p&gt;Amazon RDS: R$375,00&lt;/p&gt;&lt;p&gt;Amazon EKS: R$375,00&lt;/p&gt;" style="text;html=1;strokeColor=#6c8ebf;fillColor=#dae8fc;spacing=5;spacingTop=-20;whiteSpace=wrap;overflow=hidden;rounded=0;" vertex="1" parent="FqqMgEGBLyU7ChuTZoGB-3">
          <mxGeometry y="620" width="580" height="210" as="geometry" />
        </mxCell>
        <mxCell id="FqqMgEGBLyU7ChuTZoGB-191" value="&lt;h1&gt;Fontes de Receita&lt;/h1&gt;&lt;p&gt;-&amp;gt; Eventos pagos.&lt;/p&gt;&lt;p&gt;-&amp;gt; Percentil sob presentes.&lt;/p&gt;&lt;p&gt;-&amp;gt; Versão PRO do app. Venda direta&lt;/p&gt;&lt;p&gt;-&amp;gt; Publicidade na versão gratuita&lt;/p&gt;" style="text;html=1;strokeColor=#666666;fillColor=#f5f5f5;spacing=5;spacingTop=-20;whiteSpace=wrap;overflow=hidden;rounded=0;fontColor=#333333;" vertex="1" parent="FqqMgEGBLyU7ChuTZoGB-3">
          <mxGeometry x="580" y="620" width="590" height="210" as="geometry" />
        </mxCell>
        <mxCell id="FqqMgEGBLyU7ChuTZoGB-192" value="&lt;h1&gt;Canais&lt;/h1&gt;&lt;p&gt;-&amp;gt; Insituições de Ensino.&lt;/p&gt;&lt;p&gt;-&amp;gt; Vendas pelo App, play store.&lt;/p&gt;&lt;p&gt;-&amp;gt; Internet.&lt;/p&gt;&lt;p&gt;-&amp;gt; Centrais de evento&lt;/p&gt;" style="text;html=1;strokeColor=#82b366;fillColor=#d5e8d4;spacing=5;spacingTop=-20;whiteSpace=wrap;overflow=hidden;rounded=0;" vertex="1" parent="FqqMgEGBLyU7ChuTZoGB-3">
          <mxGeometry x="700" y="315.92" width="230" height="304.08" as="geometry" />
        </mxCell>
        <mxCell id="FqqMgEGBLyU7ChuTZoGB-193" value="&lt;h1&gt;Proposta de Valor&lt;/h1&gt;&lt;p&gt;-&amp;gt; Chamada simplificada.&lt;/p&gt;&lt;p&gt;-&amp;gt; Check-in simplificado em eventos.&lt;/p&gt;&lt;p&gt;-&amp;gt; Menos burocracia.&lt;/p&gt;&lt;p&gt;&lt;br&gt;&lt;/p&gt;" style="text;html=1;spacing=5;spacingTop=-20;whiteSpace=wrap;overflow=hidden;rounded=0;fillColor=#ffe6cc;strokeColor=#d79b00;" vertex="1" parent="FqqMgEGBLyU7ChuTZoGB-3">
          <mxGeometry x="460" width="240" height="620" as="geometry" />
        </mxCell>
        <mxCell id="FqqMgEGBLyU7ChuTZoGB-195" value="&lt;h1&gt;Segmento de Clientes&lt;/h1&gt;&lt;p&gt;-&amp;gt; Corpo discente e docente de universidades, cursos prepartórios e escolas.&lt;/p&gt;&lt;p&gt;-&amp;gt; Casas de show e eventos.&lt;/p&gt;&lt;p&gt;-&amp;gt; Centros esportivos.&lt;/p&gt;" style="text;html=1;strokeColor=#6c8ebf;fillColor=#dae8fc;spacing=5;spacingTop=-20;whiteSpace=wrap;overflow=hidden;rounded=0;" vertex="1" parent="FqqMgEGBLyU7ChuTZoGB-3">
          <mxGeometry x="930.92" width="239.08" height="620" as="geometry" />
        </mxCell>
        <mxCell id="FqqMgEGBLyU7ChuTZoGB-196" value="&lt;h1&gt;Relacionamento&lt;/h1&gt;&lt;p&gt;-&amp;gt; Utilização de técnicas de CRM.&lt;/p&gt;&lt;p&gt;-&amp;gt; PUSH, SMS e EMAIL.&lt;/p&gt;&lt;p&gt;-&amp;gt; Pesquisas na plataforma.&lt;/p&gt;&lt;p&gt;&lt;br&gt;&lt;/p&gt;" style="text;html=1;strokeColor=#666666;fillColor=#f5f5f5;spacing=5;spacingTop=-20;whiteSpace=wrap;overflow=hidden;rounded=0;fontColor=#333333;" vertex="1" parent="FqqMgEGBLyU7ChuTZoGB-3">
          <mxGeometry x="700" width="230" height="310" as="geometry" />
        </mxCell>
        <mxCell id="FqqMgEGBLyU7ChuTZoGB-8" value="" style="endArrow=none;html=1;exitX=0;exitY=0.75;exitDx=0;exitDy=0;entryX=1;entryY=0.75;entryDx=0;entryDy=0;" edge="1" parent="FqqMgEGBLyU7ChuTZoGB-25" source="FqqMgEGBLyU7ChuTZoGB-3" target="FqqMgEGBLyU7ChuTZoGB-3">
          <mxGeometry width="50" height="50" relative="1" as="geometry">
            <mxPoint x="499.2307692307692" y="571.3924550661663" as="sourcePoint" />
            <mxPoint x="574.8717948717948" y="503.36954374876564" as="targetPoint" />
          </mxGeometry>
        </mxCell>
        <mxCell id="FqqMgEGBLyU7ChuTZoGB-9" value="" style="endArrow=none;html=1;entryX=0.198;entryY=0;entryDx=0;entryDy=0;entryPerimeter=0;" edge="1" parent="FqqMgEGBLyU7ChuTZoGB-25" target="FqqMgEGBLyU7ChuTZoGB-3">
          <mxGeometry width="50" height="50" relative="1" as="geometry">
            <mxPoint x="238" y="630" as="sourcePoint" />
            <mxPoint x="244" y="6" as="targetPoint" />
          </mxGeometry>
        </mxCell>
        <mxCell id="FqqMgEGBLyU7ChuTZoGB-10" value="" style="endArrow=none;html=1;entryX=0.395;entryY=0;entryDx=0;entryDy=0;entryPerimeter=0;" edge="1" parent="FqqMgEGBLyU7ChuTZoGB-25" target="FqqMgEGBLyU7ChuTZoGB-3">
          <mxGeometry width="50" height="50" relative="1" as="geometry">
            <mxPoint x="471" y="630" as="sourcePoint" />
            <mxPoint x="467.46153846153845" y="13.60458226348015" as="targetPoint" />
          </mxGeometry>
        </mxCell>
        <mxCell id="FqqMgEGBLyU7ChuTZoGB-12" value="" style="endArrow=none;html=1;entryX=0.796;entryY=0;entryDx=0;entryDy=0;entryPerimeter=0;" edge="1" parent="FqqMgEGBLyU7ChuTZoGB-25" target="FqqMgEGBLyU7ChuTZoGB-3">
          <mxGeometry width="50" height="50" relative="1" as="geometry">
            <mxPoint x="940" y="630" as="sourcePoint" />
            <mxPoint x="590" y="231.2778984791626" as="targetPoint" />
          </mxGeometry>
        </mxCell>
        <mxCell id="FqqMgEGBLyU7ChuTZoGB-15" value="" style="endArrow=none;html=1;" edge="1" parent="FqqMgEGBLyU7ChuTZoGB-25" source="FqqMgEGBLyU7ChuTZoGB-3">
          <mxGeometry width="50" height="50" relative="1" as="geometry">
            <mxPoint x="514.3589743589744" y="707.4382777009678" as="sourcePoint" />
            <mxPoint x="590" y="630" as="targetPoint" />
          </mxGeometry>
        </mxCell>
        <mxCell id="FqqMgEGBLyU7ChuTZoGB-184" value="" style="endArrow=none;html=1;entryX=0.598;entryY=0;entryDx=0;entryDy=0;entryPerimeter=0;" edge="1" parent="FqqMgEGBLyU7ChuTZoGB-25" target="FqqMgEGBLyU7ChuTZoGB-3">
          <mxGeometry width="50" height="50" relative="1" as="geometry">
            <mxPoint x="709" y="630" as="sourcePoint" />
            <mxPoint x="711" y="20" as="targetPoint" />
          </mxGeometry>
        </mxCell>
      </root>
    </mxGraphModel>
  </diagram>
</mxfile>
